<svg width="24" height="24" viewBox="0 0 24 24" fill="none" xmlns="http://www.w3.org/2000/svg">
<path fill-rule="evenodd" clip-rule="evenodd" d="M21.0919 19.6777C21.4824 19.2871 21.4824 18.654 21.0919 18.2635L14.8284 12L21.1924 5.63604C21.5829 5.24552 21.5829 4.61235 21.1924 4.22183L19.7782 2.80761C19.3877 2.41709 18.7545 2.41709 18.364 2.80761L12 9.17157L5.53554 2.70711C5.14501 2.31658 4.51185 2.31658 4.12132 2.70711L2.70711 4.12132C2.31658 4.51185 2.31658 5.14501 2.70711 5.53554L9.17157 12L2.80761 18.364C2.41709 18.7545 2.41709 19.3877 2.80761 19.7782L4.22183 21.1924C4.61235 21.5829 5.24552 21.5829 5.63604 21.1924L12 14.8284L18.2635 21.0919C18.654 21.4824 19.2871 21.4824 19.6777 21.0919L21.0919 19.6777Z" fill="currentColor"/>
</svg>
