<svg xmlns="http://www.w3.org/2000/svg">
  <symbol id="op-div" width="24" height="24" viewBox="0 0 24 24">
    <path fill-rule="evenodd" clip-rule="evenodd" d="M15 5C15 6.65685 13.6569 8 12 8C10.3431 8 9 6.65685 9 5C9 3.34315 10.3431 2 12 2C13.6569 2 15 3.34315 15 5ZM21 10C21.5523 10 22 10.4477 22 11V13C22 13.5523 21.5523 14 21 14L3 14C2.44772 14 2 13.5523 2 13L2 11C2 10.4477 2.44772 10 3 10L21 10ZM12 22C13.6569 22 15 20.6569 15 19C15 17.3431 13.6569 16 12 16C10.3431 16 9 17.3431 9 19C9 20.6569 10.3431 22 12 22Z" fill="currentColor"/>
  </symbol>
  <symbol id="op-frc" width="24" height="24" viewBox="0 0 24 24">
    <rect x="16.268" y="0.607689" width="4" height="24" rx="1" transform="rotate(30 16.268 0.607689)" fill="currentColor"/>
  </symbol>
  <symbol id="op-sub" width="24" height="24" viewBox="0 0 24 24">
    <rect x="22" y="10" width="4" height="20" rx="1" transform="rotate(90 22 10)" fill="currentColor"/>
  </symbol>
  <symbol id="op-mul" width="24" height="24" viewBox="0 0 24 24">
    <path fill-rule="evenodd" clip-rule="evenodd" d="M21.0919 19.6777C21.4824 19.2871 21.4824 18.654 21.0919 18.2635L14.8284 12L21.1924 5.63604C21.5829 5.24552 21.5829 4.61235 21.1924 4.22183L19.7782 2.80761C19.3877 2.41709 18.7545 2.41709 18.364 2.80761L12 9.17157L5.53554 2.70711C5.14501 2.31658 4.51185 2.31658 4.12132 2.70711L2.70711 4.12132C2.31658 4.51185 2.31658 5.14501 2.70711 5.53554L9.17157 12L2.80761 18.364C2.41709 18.7545 2.41709 19.3877 2.80761 19.7782L4.22183 21.1924C4.61235 21.5829 5.24552 21.5829 5.63604 21.1924L12 14.8284L18.2635 21.0919C18.654 21.4824 19.2871 21.4824 19.6777 21.0919L21.0919 19.6777Z" fill="currentColor"/>
  </symbol>
  <symbol id="op-add" width="24" height="24" viewBox="0 0 24 24">
    <path fill-rule="evenodd" clip-rule="evenodd" d="M11 2C10.4477 2 10 2.44772 10 3V10H3C2.44772 10 2 10.4477 2 11L2 13C2 13.5523 2.44772 14 3 14H10V21C10 21.5523 10.4477 22 11 22H13C13.5523 22 14 21.5523 14 21V14H21C21.5523 14 22 13.5523 22 13V11C22 10.4477 21.5523 10 21 10H14V3C14 2.44772 13.5523 2 13 2H11Z" fill="currentColor"/>
  </symbol>
</svg>